<svg width="26" height="25" viewBox="0 0 26 25" fill="none" xmlns="http://www.w3.org/2000/svg">
<path fill-rule="evenodd" clip-rule="evenodd" d="M11.7782 0C11.1301 0 10.5086 0.263392 10.0503 0.732233C9.59206 1.20107 9.33461 1.83696 9.33461 2.5V3.44625L8.67973 2.7775C8.22148 2.30882 7.60005 2.04553 6.9521 2.04553C6.30414 2.04553 5.68271 2.30882 5.22446 2.7775L3.49683 4.545C3.03873 5.01382 2.78138 5.64959 2.78138 6.3125C2.78138 6.97541 3.03873 7.61118 3.49683 8.08L4.1505 8.75H3.22559C2.57751 8.75 1.95596 9.01339 1.4977 9.48223C1.03943 9.95107 0.781982 10.587 0.781982 11.25V13.75C0.781982 14.413 1.03943 15.0489 1.4977 15.5178C1.95596 15.9866 2.57751 16.25 3.22559 16.25H4.1505L3.49683 16.92C3.03873 17.3888 2.78138 18.0246 2.78138 18.6875C2.78138 19.3504 3.03873 19.9862 3.49683 20.455L5.22446 22.2225C5.68271 22.6912 6.30414 22.9545 6.9521 22.9545C7.60005 22.9545 8.22148 22.6912 8.67973 22.2225L9.33461 21.5537V22.5C9.33461 23.163 9.59206 23.7989 10.0503 24.2678C10.5086 24.7366 11.1301 25 11.7782 25H14.2218C14.8699 25 15.4915 24.7366 15.9497 24.2678C16.408 23.7989 16.6654 23.163 16.6654 22.5V21.5537L17.3203 22.2225C17.7786 22.6912 18.4 22.9545 19.048 22.9545C19.6959 22.9545 20.3173 22.6912 20.7756 22.2225L22.5032 20.455C22.7302 20.2228 22.9103 19.9472 23.0332 19.6438C23.156 19.3404 23.2193 19.0153 23.2193 18.6869C23.2193 18.3585 23.156 18.0333 23.0332 17.7299C22.9103 17.4266 22.7302 17.1509 22.5032 16.9188L21.8496 16.25H22.7745C23.4225 16.25 24.0441 15.9866 24.5024 15.5178C24.9606 15.0489 25.2181 14.413 25.2181 13.75V11.25C25.2181 10.587 24.9606 9.95107 24.5024 9.48223C24.0441 9.01339 23.4225 8.75 22.7745 8.75H21.8496L22.5032 8.08C22.9613 7.61118 23.2187 6.97541 23.2187 6.3125C23.2187 5.64959 22.9613 5.01382 22.5032 4.545L20.7756 2.7775C20.3173 2.30882 19.6959 2.04553 19.048 2.04553C18.4 2.04553 17.7786 2.30882 17.3203 2.7775L16.6654 3.44625V2.5C16.6654 1.83696 16.408 1.20107 15.9497 0.732233C15.4915 0.263392 14.8699 0 14.2218 0H11.7782ZM17.8872 12.5C17.8872 13.8261 17.3723 15.0979 16.4558 16.0355C15.5393 16.9732 14.2962 17.5 13 17.5C11.7039 17.5 10.4608 16.9732 9.54424 16.0355C8.62771 15.0979 8.11281 13.8261 8.11281 12.5C8.11281 11.1739 8.62771 9.90215 9.54424 8.96447C10.4608 8.02678 11.7039 7.5 13 7.5C14.2962 7.5 15.5393 8.02678 16.4558 8.96447C17.3723 9.90215 17.8872 11.1739 17.8872 12.5ZM13 15C13.6481 15 14.2697 14.7366 14.7279 14.2678C15.1862 13.7989 15.4436 13.163 15.4436 12.5C15.4436 11.837 15.1862 11.2011 14.7279 10.7322C14.2697 10.2634 13.6481 10 13 10C12.3519 10 11.7304 10.2634 11.2721 10.7322C10.8139 11.2011 10.5564 11.837 10.5564 12.5C10.5564 13.163 10.8139 13.7989 11.2721 14.2678C11.7304 14.7366 12.3519 15 13 15Z" fill="black"/>
</svg>
