<svg width="23" height="25" viewBox="0 0 23 25" fill="none" xmlns="http://www.w3.org/2000/svg">
<path fill-rule="evenodd" clip-rule="evenodd" d="M11.1111 1.2366e-07C9.36806 -0.000300073 7.66879 0.545972 6.25245 1.56194C4.8361 2.57791 3.77398 4.01242 3.21557 5.6636C2.65715 7.31478 2.63054 9.0995 3.1395 10.7666C3.64845 12.4337 4.66734 13.8992 6.05278 14.9569C2.51944 16.5375 0 19.7333 0 23.6111C0 23.9795 0.146329 24.3327 0.406796 24.5932C0.667264 24.8537 1.02053 25 1.38889 25H20.8333C21.2017 25 21.555 24.8537 21.8154 24.5932C22.0759 24.3327 22.2222 23.9795 22.2222 23.6111C22.2222 19.7333 19.7028 16.5375 16.1694 14.9569C17.5549 13.8992 18.5738 12.4337 19.0827 10.7666C19.5917 9.0995 19.5651 7.31478 19.0067 5.6636C18.4482 4.01242 17.3861 2.57791 15.9698 1.56194C14.5534 0.545972 12.8542 -0.000300073 11.1111 1.2366e-07Z" fill="black"/>
</svg>
