<svg width="25" height="25" viewBox="0 0 25 25" fill="none" xmlns="http://www.w3.org/2000/svg">
<path fill-rule="evenodd" clip-rule="evenodd" d="M12.6038 23.74C9.59534 23.74 6.7101 22.5449 4.58279 20.4176C2.45548 18.2903 1.26038 15.4051 1.26038 12.3966C1.26038 7.04249 4.96968 2.49755 9.95701 1.29515C10.688 1.11869 11.3434 1.70981 11.3434 2.461V11.1362C11.3434 11.8048 11.609 12.4459 12.0817 12.9187C12.5545 13.3914 13.1956 13.657 13.8642 13.657H22.5394C23.2906 13.657 23.8804 14.3124 23.7052 15.0434C22.5028 20.0307 17.9579 23.74 12.6038 23.74ZM16.385 2.31354V8.61544H22.6869C22.2672 6.51439 20.4182 2.31354 16.385 2.31354Z" fill="black"/>
<path d="M16.385 8.61544H15.1246C15.1246 8.94972 15.2574 9.2703 15.4937 9.50667C15.7301 9.74304 16.0507 9.87582 16.385 9.87582V8.61544ZM16.385 2.31354V1.05316C16.0507 1.05316 15.7301 1.18595 15.4937 1.42231C15.2574 1.65868 15.1246 1.97926 15.1246 2.31354H16.385ZM22.6869 8.61544V9.87582C22.8733 9.87571 23.0573 9.83426 23.2258 9.75445C23.3942 9.67463 23.5429 9.55845 23.661 9.41428C23.7791 9.2701 23.8638 9.10151 23.909 8.92066C23.9541 8.73981 23.9586 8.55119 23.922 8.36841L22.6869 8.61544ZM0 12.3966C0 19.3577 5.64273 25.0004 12.6038 25.0004V22.4796C9.92962 22.4796 7.36496 21.4173 5.47402 19.5264C3.58308 17.6354 2.52076 15.0708 2.52076 12.3966H0ZM9.66208 0.0700593C4.11388 1.40606 0 6.45389 0 12.3966H2.52076C2.52076 7.63235 5.82296 3.58778 10.2532 2.5215L9.66208 0.0700593ZM12.6038 2.461C12.6038 1.01156 11.2968 -0.32444 9.66208 0.0700593L10.2532 2.5215C10.2269 2.527 10.1998 2.52669 10.1737 2.52059C10.1475 2.5145 10.1231 2.50276 10.102 2.48621C10.083 2.46856 10.083 2.4547 10.083 2.461H12.6038ZM12.6038 11.1362V2.461H10.083V11.1362H12.6038ZM13.8642 12.3966C13.5299 12.3966 13.2093 12.2638 12.973 12.0274C12.7366 11.7911 12.6038 11.4705 12.6038 11.1362H10.083C10.083 12.139 10.4814 13.1008 11.1905 13.8099C11.8996 14.519 12.8614 14.9173 13.8642 14.9173V12.3966ZM22.5394 12.3966H13.8642V14.9173H22.5394V12.3966ZM24.9303 15.3383C25.3236 13.7049 23.9876 12.3966 22.5394 12.3966V14.9173C22.5457 14.9173 22.5318 14.9186 22.5142 14.8972C22.498 14.8762 22.4865 14.8518 22.4806 14.8259C22.4748 14.8 22.4746 14.7732 22.4802 14.7472L24.9303 15.3383ZM12.6038 25.0004C18.5465 25.0004 23.5943 20.8865 24.9303 15.3383L22.4789 14.7472C21.4139 19.1774 17.3681 22.4796 12.6038 22.4796V25.0004ZM17.6453 8.61544V2.31354H15.1246V8.61544H17.6453ZM22.6869 7.35506H16.385V9.87582H22.6869V7.35506ZM16.385 3.57392C17.9012 3.57392 19.0381 4.34401 19.8951 5.44937C20.7698 6.57741 21.2702 7.96131 21.4504 8.86248L23.9233 8.36841C23.6838 7.16853 23.0486 5.40147 21.8865 3.90414C20.7068 2.38286 18.9019 1.05316 16.385 1.05316V3.57392Z" fill="black"/>
</svg>
